<!-- icon666.com - MILLIONS vector ICONS FREE --><svg id="Layer_1" enable-background="new 0 0 130 130" viewBox="0 0 130 130" xmlns="http://www.w3.org/2000/svg"><g><g><circle cx="65" cy="65" fill="#ffceab" r="64"></circle></g><g fill="#f4bd98"><path d="m76.71841 14.16734c0 .55517-.45005 1.00522-1.00522 1.00522h-6.32154c-.55278 0-1.00515-.45233-1.00515-1.0052s.45237-1.00524 1.00515-1.00524h6.32154c.55517 0 1.00522.45005 1.00522 1.00522z"></path><path d="m79.58634 14.16734c0-.55517.45005-1.00522 1.00521-1.00522h12.65655c.55517 0 1.00522.45005 1.00522 1.00522 0 .55517-.45005 1.00522-1.00522 1.00522h-12.65655c-.55516-.00001-1.00521-.45006-1.00521-1.00522z"></path><path d="m38.7993 18.70382c0 .55517-.45005 1.00522-1.00523 1.00522l-4.1234-.00001c-.55278 0-1.00516-.45233-1.00516-1.0052s.45238-1.00524 1.00516-1.00524l4.1234.00001c.55517 0 1.00523.45005 1.00523 1.00522z"></path><path d="m30.47778 18.70382c0 .55517-.45005 1.00522-1.00522 1.00522l-1.55909-.00001c-.55278 0-1.00516-.45233-1.00516-1.0052s.45238-1.00524 1.00516-1.00524l1.55909.00001c.55517 0 1.00522.45005 1.00522 1.00522z"></path><path d="m11.96871 88.97473h-6.30859c.27344.67627.55884 1.34583.85449 2.01044h5.4541c.55518 0 1.00513-.45001 1.00513-1.00519 0-.55524-.44995-1.00525-1.00513-1.00525z"></path><path d="m16.48834 90.98513h-.94628c-.55517 0-1.00522-.45005-1.00522-1.00521v-.00001c0-.55516.45005-1.00522 1.00522-1.00522h.94628c.55513 0 1.00515.45007 1.00515 1.0052v.00005c0 .55513-.45002 1.00519-1.00515 1.00519z"></path><path d="m40.39107 124.08997h4.52295c.55518 0 1.00513-.45007 1.00513-1.00519v-.00006c0-.55518-.44995-1.00519-1.00513-1.00519h-8.85034c1.41504.71887 2.85425 1.39612 4.32739 2.01044z"></path><path d="m58.00883 122.0795h-8.95542c-.55517 0-1.00522.45005-1.00522 1.00522 0 .55517.45005 1.00522 1.00522 1.00522h8.95542c.55296 0 1.00533-.45237 1.00533-1.00524s-.45237-1.0052-1.00533-1.0052z"></path><path d="m79.13158 110.55081 12.75004.00001c.55517 0 1.00525.45005 1.00529 1.00522.00005.55517-.44997 1.00522-1.00513 1.00522l-12.75004-.00001c-.55296 0-1.00519-.45237-1.00523-1.00524s.45211-1.0052 1.00507-1.0052z"></path><path d="m86.51179 82.68668h12.75004c.55517 0 1.00525.45006 1.00529 1.00522v.00001c.00005.55517-.44997 1.00522-1.00513 1.00522l-12.75004-.00001c-.55296 0-1.00519-.45237-1.00523-1.00524s.4521-1.0052 1.00507-1.0052z"></path><path d="m95.49947 111.55604c-.00004-.55517.44997-1.00522 1.00513-1.00522h1.0803c.55513 0 1.00518.45007 1.00523 1.0052.00005.55518-.44994 1.00524-1.00507 1.00524h-1.08029c-.55517 0-1.00526-.45005-1.0053-1.00522z"></path><path d="m110.21481 37.6707c0-.55517.45005-1.00522 1.00522-1.00522h1.67143c.55517 0 1.00522.45005 1.00522 1.00522 0 .55517-.45005 1.00522-1.00522 1.00522h-1.67143c-.55517 0-1.00522-.45005-1.00522-1.00522z"></path><path d="m117.56149 38.6759h5.77051c-.30518-.67554-.61621-1.3476-.94409-2.01044h-4.82642c-.55518 0-1.00537.45007-1.00537 1.00525s.45019 1.00519 1.00537 1.00519z"></path><path d="m16.99005 58.32821c.00004.55517-.44999 1.00522-1.00516 1.00522h-1.96586c-.55278 0-1.00519-.45233-1.00522-1.0052-.00004-.55287.45231-1.00524 1.00509-1.00524h1.96586c.55517 0 1.00525.45005 1.00529 1.00522z"></path><path d="m18.62244 58.32821c-.00004-.55517.44999-1.00522 1.00516-1.00522h5.91962c.55517 0 1.00525.45005 1.00529 1.00522.00004.55516-.44999 1.00522-1.00516 1.00522h-5.91962c-.55516 0-1.00525-.45005-1.00529-1.00522z"></path><path d="m104.68446 67.35595h11.04468c.55517 0 1.00522.45005 1.00522 1.00522 0 .55517-.45005 1.00522-1.00522 1.00522h-11.04468c-.55296 0-1.00533-.45237-1.00533-1.00524s.45238-1.0052 1.00533-1.0052z"></path><path d="m124.11423 68.36127c0 .55517-.45005 1.00522-1.00523 1.00522h-3.33968c-.55278 0-1.00515-.45233-1.00515-1.0052 0-.55286.45237-1.00524 1.00515-1.00524l3.33968.00001c.55518 0 1.00523.45005 1.00523 1.00521z"></path></g><g><g fill="#f4bd98"><path d="m62.63304 60.33378c2.57467-.49446 5.23985-.47521 7.80493.06675 7.31773 1.5461 12.71256 5.98946 17.24977 11.82857 4.66798 6.0074 7.41605 12.8154 7.81001 20.46983.26599 5.16773-1.2063 9.65462-5.90014 12.38778-4.69849 2.73588-9.58562 3.12151-14.47918.78136-.56956-.27238-1.43659-.83521-1.95063-1.20174-5.68925-4.05679-7.76273-4.12224-13.37274-.09259-4.93438 3.54433-10.14455 3.53075-15.44442 1.1678-4.65271-2.07441-6.66459-6.04602-7.08228-10.93521-1.19758-14.01803 10.95153-30.96785 24.61342-34.30955.24935-.061.50044-.11483.75126-.163z"></path><path d="m61.42418 48.4703c-2.66284 4.95627-8.43248 5.99522-13.19172 2.94599-8.60725-5.51462-10.52697-20.82146-3.55031-28.30836 4.68785-5.0307 11.71283-4.38782 15.6848 1.49268 2.75323 4.07617 3.66523 8.70568 3.76527 13.52074.04369 2.10283-1.05028 7.2634-2.70804 10.34895z"></path><path d="m68.76618 38.12725c-.23438-4.55338.82527-8.86365 3.17188-12.7445 4.57352-7.56379 13.38757-7.55404 17.97765-.00065 4.39951 7.23981 2.87256 18.5647-3.2936 24.42756-5.74506 5.46247-13.71625 3.76686-16.49799-3.68145-.94804-2.53842-1.21705-5.26393-1.35794-8.00096z"></path><path d="m88.35832 60.77924c.4584-5.91106 2.37897-11.76665 8.0311-15.70148 4.17231-2.90463 8.98943-1.84638 11.7054 2.35614 4.77806 7.39327.88937 20.55111-7.14642 24.18077-5.96912 2.69617-11.50507-.68273-12.4309-7.60802-.11403-.8529-.08979-1.72427-.15918-3.22741z"></path><path d="m44.35905 61.57476c0 .60464.06618 1.21785-.01081 1.81252-.47666 3.68145-1.76369 6.95828-5.40574 8.54173-3.67083 1.59596-6.90956.28503-9.82538-2.07501-5.53383-4.47905-8.00165-13.62846-5.48367-20.25153 2.39139-6.29006 8.44248-7.97937 13.76672-3.84332 4.13752 3.21417 7.02364 9.73181 6.95888 15.81561z"></path></g><g fill="#f34b50"><path d="m68.83594 58.39346c20.64095 4.36105 32.99567 36.62963 19.15965 44.68618-5.87206 3.41922-11.8266 2.86198-16.42981-.42039-5.68925-4.05678-7.76273-4.12223-13.37275-.09259-4.93437 3.54433-10.14454 3.53075-15.44442 1.16781-4.65271-2.07441-6.66459-6.04603-7.08228-10.93521-1.39211-16.29514 15.79957-38.07576 33.16961-34.4058z"></path><path d="m59.82214 46.46323c-2.66284 4.95627-8.43248 5.99522-13.19172 2.946-8.60725-5.51462-10.52697-20.82146-3.55031-28.30836 4.68785-5.0307 11.71283-4.38782 15.6848 1.49268 2.75323 4.07617 3.66523 8.70567 3.76527 13.52074.04369 2.10282-1.05028 7.26339-2.70804 10.34894z"></path><path d="m67.16415 36.12019c-.23438-4.55338.82527-8.86365 3.17188-12.7445 4.57352-7.56379 13.38757-7.55404 17.97765-.00065 4.39951 7.23981 2.87256 18.5647-3.29361 24.42756-5.74506 5.46247-13.71624 3.76686-16.49799-3.68145-.94804-2.53843-1.21704-5.26393-1.35793-8.00096z"></path><path d="m86.75629 58.77217c.45839-5.91106 2.37897-11.76665 8.03109-15.70148 4.17232-2.90462 8.98943-1.84638 11.70541 2.35614 4.77806 7.39327.88937 20.5511-7.14643 24.18077-5.96912 2.69617-11.50507-.68273-12.4309-7.60803-.11402-.85288-.08978-1.72425-.15917-3.2274z"></path><path d="m42.7462 61.38022c-.47666 3.68146-1.76369 6.95828-5.40573 8.54173-3.67083 1.59596-6.90957.28503-9.82538-2.075-5.53384-4.47905-8.00165-13.62846-5.48367-20.25153 2.39139-6.29006 8.44248-7.97938 13.76672-3.84332 5.0165 3.89698 7.6485 12.21826 6.94806 17.62812z"></path></g><g fill="#e53946"><path d="m87.99117 103.08559c-4.69592 2.72839-9.57532 3.12196-14.48098.77401-.56425-.27541-1.42985-.83965-1.94126-1.20664-5.69279-4.0532-7.76535-4.11885-13.37938-.09191-4.93192 3.5546-10.13925 3.54147-15.43848 1.16726-2.11162-.94437-3.68557-2.26918-4.80062-3.90878.60332.41982 1.27229.80026 2.0069 1.12818 5.29923 2.36108 10.50656 2.37421 15.43848-1.16725 5.61402-4.04008 7.68626-3.97475 13.37906.09158.51141.36731 1.37733.91811 1.95438 1.19383 4.89253 2.34763 9.77194 1.95407 14.46785-.774 4.69592-2.74152 6.17796-7.22736 5.90256-12.3953-.39357-7.64719-3.13477-14.45472-7.80443-20.46231-.70835-.91811-1.4561-1.80996-2.21666-2.64961 1.79684 1.60021 3.44956 3.43675 5.01038 5.44334 4.66965 6.00759 7.41118 12.81512 7.80474 20.46231.26228 5.16793-1.20696 9.65408-5.90254 12.39529z"></path><path d="m62.53128 36.11153c.03939 2.11162-1.0494 7.26675-2.71526 10.349-2.66275 4.95818-8.42087 5.99446-13.18243 2.95127-1.39014-.89185-2.60991-2.0463-3.63306-3.38423.2754.21007.5508.4067.83934.59019 4.76124 3.04318 10.53281 2.00723 13.19556-2.95128 1.65273-3.08225 2.7412-8.23706 2.70213-10.349-.10504-4.81376-1.01002-9.44402-3.76467-13.51035-.07878-.11785-.15755-.23601-.23601-.34105 1.12786.77401 2.15101 1.82341 3.02974 3.12196 2.75464 4.07915 3.65963 8.70942 3.76466 13.52349z"></path><path d="m87.53195 44.75529c-.15755.22288-.30167.44608-.44609.66897-.61645.86559-1.31168 1.65273-2.05943 2.37421-4.99725 4.76156-11.67381 4.09227-15.1365-1.04941 3.62025 2.37421 8.48652 1.92813 12.34278-1.74463 6.16483-5.86317 7.68626-17.1828 3.29232-24.42329-.22288-.36731-.45921-.72149-.70835-1.06254 1.31168.93124 2.50519 2.20353 3.5024 3.85658 3.72496 6.12544 3.20042 15.18903-.78713 21.38011z"></path><path d="m99.35018 69.61185c-4.40738 1.99345-8.59155.66865-10.8476-2.96473 2.24292 1.35107 5.08916 1.50862 8.05357.17068 8.02763-3.63337 11.92327-16.78955 7.1489-24.18727 0-.01313-.01345-.01313-.01345-.02626 1.06254.66897 2.02003 1.61334 2.80717 2.81998 4.77468 7.39805.87872 20.55423-7.14859 24.1876z"></path><path d="m42.75107 61.37415c-.48515 3.68589-1.77057 6.96509-5.41708 8.55217-3.65963 1.58739-6.89944.27572-9.82446-2.08537-.87904-.72149-1.69212-1.54801-2.38734-2.47925 2.80717 2.16446 5.92881 3.29232 9.43089 1.77089 3.63338-1.58708 4.9188-4.86628 5.40427-8.53904.07878-.60332.01313-1.21977.01313-1.82309.03939-4.69591-1.67899-9.66722-4.38112-13.15617.06565.03939.14443.09191.21008.1441 4.13166 3.21355 7.01729 9.71974 6.95164 15.80579-.00001.60333.06564 1.21978-.00001 1.80997z"></path></g><g><g><path d="m84.0145 72.48755c-.1947 0-.38812-.0871-.51749-.25362-4.68951-6.03384-9.56347-9.41167-15.33921-10.63177-.35354-.07493-.58026-.42271-.50597-.77753.0743-.35546.43039-.5777.77753-.50597 6.09596 1.28734 11.21202 4.81824 16.10264 11.11084.22289.28565.17036.69747-.11529.92036-.11913.09286-.26131.13769-.40221.13769z" fill="#ff6c77"></path></g><g><path d="m53.47699 65.02161c-.21264 0-.42271-.10375-.54824-.29589-.19854-.30294-.114-.709.1883-.90818 2.49398-1.63832 5.06226-2.78796 7.63054-3.4169.35994-.08582.70708.13001.7929.48163.0871.35162-.12938.70644-.48035.7929-2.42353.59307-4.85347 1.68251-7.2232 3.23885-.11145.07301-.2357.10759-.35995.10759z" fill="#ff6c77"></path></g><g><path d="m38.27996 93.23167c-.33688 0-.62253-.2581-.65199-.60011-.7058-8.26396 3.54947-18.11372 10.84056-25.09354.26131-.25107.67633-.24081.9274.02049.24978.26131.24082.67698-.02049.9274-7.01569 6.71531-11.11468 16.1494-10.44091 24.0342.03074.36058-.23697.67825-.59692.709-.01922.00192-.03843.00256-.05765.00256z" fill="#ff6c77"></path></g><g><path d="m44.99847 23.54491c-.16011 0-.32023-.05828-.44704-.17613-.26516-.24658-.27924-.6616-.03331-.92676 1.65753-1.77858 3.73137-2.7585 5.8385-2.7585.36251 0 .65584.29333.65584.65584 0 .3625-.29333.65584-.65584.65584-1.73951 0-3.47134.83133-4.8778 2.34091-.12937.13899-.30486.2088-.48035.2088z" fill="#ff6c77"></path></g><g><path d="m41.61552 36.33762c-.32536 0-.60717-.2421-.64944-.57386-.43423-3.44059-.00512-6.87799 1.20921-9.67875.14474-.3324.52646-.48483.86335-.34137.33176.1441.4842.53031.34073.86271-1.1221 2.58813-1.51663 5.78214-1.11185 8.99345.04483.3593-.20879.68722-.56874.7327-.02818.0032-.05508.00512-.08326.00512z" fill="#ff6c77"></path></g><g><path d="m86.07169 25.3933c-.22032 0-.43681-.11208-.56105-.31511-1.5794-2.60094-3.83768-4.09259-6.19461-4.09259-.3625 0-.65584-.29333-.65584-.65584s.29333-.65584.65584-.65584c2.82574 0 5.49265 1.72158 7.3167 4.72281.18702.30999.08967.71284-.22031.90114-.10633.06469-.22417.09543-.34073.09543z" fill="#ff6c77"></path></g><g><path d="m72.58086 25.38882c-.11656 0-.23313-.03074-.33945-.09479-.30999-.18702-.40862-.59051-.2216-.9005.85054-1.40711 1.88042-2.53241 3.06272-3.3458.29589-.20431.7058-.13001.91203.16908.20495.29782.12937.70644-.16908.91203-1.02731.70644-1.92909 1.6966-2.68356 2.94359-.12298.20367-.33945.31639-.56106.31639z" fill="#ff6c77"></path></g><g><path d="m69.7833 36.6412c-.34714 0-.63663-.2722-.65456-.62189-.155-2.99995.30614-5.88206 1.36932-8.56626.13322-.33689.51366-.50149.85182-.36827.33561.13322.50085.5143.36763.85118-.994 2.50807-1.4244 5.20508-1.27966 8.01546.01921.36187-.25875.67057-.62125.68914-.01152.00064-.02305.00064-.0333.00064z" fill="#ff6c77"></path></g><g><path d="m24.483 49.18349c-.07814 0-.15627-.01345-.23313-.04291-.33817-.12873-.50853-.50789-.38044-.84606 1.16949-3.07296 3.3394-4.83553 5.95251-4.83553.3625 0 .65584.29333.65584.65584 0 .3625-.29333.65584-.65584.65584-2.03925 0-3.76083 1.4545-4.72537 3.99012-.09991.26194-.3497.4227-.61357.4227z" fill="#ff6c77"></path></g><g><path d="m24.83782 60.22643c-.26387 0-.51237-.16011-.61229-.42143-.93124-2.43698-1.3437-5.02767-1.19127-7.49155.02177-.36058.29974-.62766.69555-.61421.36123.02242.63535.33369.61357.69491-.1409 2.27814.2421 4.67926 1.10673 6.94203.12938.33881-.03971.71797-.37788.84734-.07685.02883-.15627.04291-.23441.04291z" fill="#ff6c77"></path></g><g><path d="m29.1661 66.46331c-.14475 0-.29077-.04803-.41246-.14603-1.39238-1.12658-2.6336-2.66627-3.59046-4.45382-.17164-.31895-.05124-.71668.26772-.88769.31767-.16844.71604-.05188.88769.269.87616 1.63383 2.00338 3.03582 3.25998 4.05288.28181.228.32536.64046.09735.92227-.12938.16013-.31896.24339-.50982.24339z" fill="#ff6c77"></path></g><g><path d="m104.28915 47.50674c-.21392 0-.42527-.10568-.5508-.29974-1.0414-1.61014-2.47733-2.49654-4.04648-2.49654-.3625 0-.65584-.29333-.65584-.65584s.29333-.65584.65584-.65584c2.02901 0 3.8569 1.09969 5.14809 3.09602.19598.30422.10888.71028-.1947.9069-.11016.07109-.23314.10504-.35611.10504z" fill="#ff6c77"></path></g><g><path d="m92.40207 49.7836c-.12682 0-.25362-.03651-.36635-.11208-.30102-.20238-.38044-.61036-.17805-.9101 1.07214-1.589 2.39792-2.92245 4.05289-4.0753.29974-.20623.70708-.1345.91331.16332.20751.29718.1345.7058-.16268.91267-1.52047 1.05933-2.73608 2.28007-3.71471 3.73201-.12682.18829-.33434.28948-.54441.28948z" fill="#ff6c77"></path></g><g><path d="m89.38546 59.47324c-.01793 0-.03715-.00064-.05508-.00192-.36122-.0301-.62894-.34649-.59948-.70772.22032-2.68356.72245-4.96939 1.53712-6.98878.13578-.33625.52134-.497.8531-.36314.33688.13578.49957.5175.36378.85374-.76472 1.89515-1.23738 4.05545-1.44746 6.60579-.02816.34265-.31509.60203-.65198.60203z" fill="#ff6c77"></path></g></g></g></g></svg>